
<svg xmlns="http://www.w3.org/2000/svg" version="1.1" xmlns:xlink="http://www.w3.org/1999/xlink" preserveAspectRatio="none" x="0px" y="0px" width="32px" height="18px" viewBox="0 0 32 18">
<defs/>

<g id="Layer_1">
<g transform="matrix( 1, 0, 0, 1.0714263916015625, -13,-8.55) ">
<g>
<g>
<path fill="#FFFFFF" stroke="none" d="
M 23.45 17.2
Q 23.35 18.85 22.15 20.05 20.95 21.25 19.3 21.35 17.6 21.45 16.25 20.35 14.9 19.25 14.65 17.6 14.55 16.9 13.8 16.9 13.4 16.9 13.2 17.2 12.95 17.5 13 17.85 13.4 20.25 15.3 21.75 17.2 23.25 19.7 23 21.85 22.75 23.35 21.25 24.85 19.75 25.1 17.6 25.4 14.9 23.6 12.85 21.8 10.8 19.1 10.8
L 19.1 9.15
Q 19.1 8.95 18.9 9.05
L 15.5 11.55
Q 15.45 11.65 15.5 11.7
L 18.9 14.2
Q 19.1 14.3 19.1 14.1
L 19.1 12.45
Q 21 12.5 22.25 13.9 23.55 15.3 23.45 17.2 Z"/>
</g>
</g>
</g>

<g transform="matrix( 1, 0, 0, 1.0714263916015625, -13,-8.55) ">
<g>
<g>
<path fill="#FFFFFF" stroke="none" d="
M 44.8 8.2
Q 44.55 8 44.25 8
L 35.2 8
Q 34.9 8 34.7 8.2 34.5 8.45 34.5 8.7
L 34.5 10.85 31.7 10.85
Q 31 10.85 31 11.5
L 31 24.15
Q 31 24.8 31.7 24.8
L 40.75 24.8
Q 41.5 24.8 41.5 24.15
L 41.5 22 44.25 22
Q 45 22 45 21.3
L 45 8.7
Q 45 8.45 44.8 8.2
M 41.3 11.05
Q 41.05 10.85 40.75 10.85
L 35.9 10.85 35.9 9.4 43.55 9.4 43.55 20.65 41.5 20.65 41.5 11.5
Q 41.5 11.25 41.3 11.05
M 32.4 12.2
L 40.05 12.2 40.05 23.4 32.4 23.4 32.4 12.2 Z"/>
</g>
</g>
</g>
</g>
</svg>
